<?xml version="1.0" encoding="utf-8"?>
<!-- Generator: Adobe Illustrator 25.2.0, SVG Export Plug-In . SVG Version: 6.00 Build 0)  -->
<svg version="1.1" id="Capa_1" xmlns="http://www.w3.org/2000/svg" xmlns:xlink="http://www.w3.org/1999/xlink" x="0px" y="0px"
	 viewBox="0 0 512 512" style="enable-background:new 0 0 512 512;" xml:space="preserve">
<style type="text/css">
	.st0{fill:#FFFFFF;}
</style>
<g>
	<circle class="st0" cx="196" cy="75" r="15"/>
	<path class="st0" d="M292.8,60h-23.3C262.4,25.2,231.7,0,196,0s-66.4,25.2-73.5,60H99.2c-8.3,0-15,6.7-15,15v15H20.8
		c-8.3,0-15,6.7-15,15v392c0,8.3,6.7,15,15,15H196h175.2c8.3,0,15-6.7,15-15V105c0-8.3-6.7-15-15-15h-63.4V75
		C307.8,66.7,301.1,60,292.8,60z M114.2,90h9.5c13.7,0,25.6-9.8,28.1-23.3c4-21.3,22.6-36.7,44.2-36.7s40.3,15.4,44.2,36.7
		c2.5,13.5,14.3,23.3,28.1,23.3h9.5v30H114.2L114.2,90z M356.2,120v362H196H35.8V120h48.4v15c0,8.3,6.7,15,15,15h193.6
		c8.3,0,15-6.7,15-15v-15H356.2z"/>
	<path class="st0" d="M114.2,184.4l-19,19l-3.8-3.8c-5.9-5.9-15.4-5.9-21.2,0s-5.9,15.4,0,21.2l14.4,14.4c5.9,5.9,15.4,5.9,21.2,0
		l29.6-29.6c5.9-5.9,5.9-15.4,0-21.2C129.6,178.5,120.1,178.5,114.2,184.4L114.2,184.4z"/>
	<path class="st0" d="M114.2,274.4l-19,19l-3.8-3.8c-5.9-5.9-15.4-5.9-21.2,0s-5.9,15.4,0,21.2l14.4,14.4c5.9,5.9,15.4,5.9,21.2,0
		l29.6-29.6c5.9-5.9,5.9-15.4,0-21.2C129.6,268.5,120.1,268.5,114.2,274.4z"/>
	<path class="st0" d="M114.2,364.4l-19,19l-3.8-3.8c-5.9-5.9-15.4-5.9-21.2,0s-5.9,15.4,0,21.2l14.4,14.4c5.9,5.9,15.4,5.9,21.2,0
		l29.6-29.6c5.9-5.9,5.9-15.4,0-21.2C129.6,358.5,120.1,358.5,114.2,364.4z"/>
	<path class="st0" d="M169.8,209.8c0,8.3,6.7,15,15,15h126.3c8.3,0,15-6.7,15-15s-6.7-15-15-15H184.8
		C176.5,194.8,169.8,201.5,169.8,209.8L169.8,209.8z"/>
	<path class="st0" d="M311.2,284.8H184.8c-8.3,0-15,6.7-15,15s6.7,15,15,15h126.3c8.3,0,15-6.7,15-15S319.4,284.8,311.2,284.8z"/>
	<path class="st0" d="M311.2,374.8c-15.1,0-111.2,0-126.3,0c-8.3,0-15,6.7-15,15s6.7,15,15,15h126.3c8.3,0,15-6.7,15-15
		S319.4,374.8,311.2,374.8z"/>
	<path class="st0" d="M431.2,90c-8.3,0-15,6.7-15,15v324.2c0,7.4,1.8,14.9,5.1,21.5l26.5,53c5.5,11,21.3,11,26.8,0l26.5-53
		c3.3-6.6,5.1-14.1,5.1-21.5V105c0-8.3-6.7-15-15-15H431.2z M474.3,437.3l-13.1,26.2l-13.1-26.2c-2.3-4.6-1.9-7.9-1.9-15.2h30
		C476.2,429.2,476.6,432.6,474.3,437.3z M476.2,397.1h-30V180h30V397.1z M476.2,150h-30v-30h30V150z"/>
</g>
</svg>
