<?xml version="1.0" encoding="utf-8"?>
<!-- Generator: Adobe Illustrator 25.2.0, SVG Export Plug-In . SVG Version: 6.00 Build 0)  -->
<svg version="1.1" id="Layer_1" xmlns="http://www.w3.org/2000/svg" xmlns:xlink="http://www.w3.org/1999/xlink" x="0px" y="0px"
	 viewBox="0 0 511 511" style="enable-background:new 0 0 511 511;" xml:space="preserve">
<style type="text/css">
	.st0{fill:#FFFFFF;}
</style>
<path class="st0" d="M444.1,4.4c-5.8-5.8-15.3-5.8-21.2,0L307.5,119.8H45.9C21.1,119.8,1,139.9,1,164.7v209.6
	c0,24.8,20.1,44.9,44.9,44.9h16V496c0,6.1,3.7,11.6,9.3,13.9c5.7,2.3,12.2,0.9,16.4-3.4l85.4-87.3h174.4c24.8,0,44.9-20.1,44.9-44.9
	V204.5L507.6,89.1c5.8-5.8,5.8-15.3,0-21.2L444.1,4.4z M306.5,247.9l-42.3-42.3l127-127l42.3,42.3L306.5,247.9z M248.2,231.9
	l31.9,31.9l-54.7,22.8L248.2,231.9z M362.3,374.3c0,8.3-6.7,15-15,15H166.7c-4,0-7.9,1.6-10.7,4.5l-64.2,65.6v-55.1
	c0-8.3-6.7-15-15-15H45.9c-8.3,0-15-6.7-15-15V164.7c0-8.3,6.7-15,15-15h231.7l-45.2,45.2c-1.2,1.2-2.5,3-3.3,5l-41.4,99.5h-80.8
	c-8.3,0-15,6.7-15,15c0,8.3,6.7,15,15,15h90.8h0c1.9,0,4-0.4,5.9-1.2l108.6-45.2c1.8-0.7,3.6-1.9,5-3.3l45.2-45.2V374.3z
	 M454.7,99.7l-42.3-42.3l21.2-21.2l42.3,42.3L454.7,99.7z"/>
</svg>
