<?xml version="1.0" encoding="utf-8"?>
<!-- Generator: Adobe Illustrator 25.2.0, SVG Export Plug-In . SVG Version: 6.00 Build 0)  -->
<svg version="1.1" id="Capa_1" xmlns="http://www.w3.org/2000/svg" xmlns:xlink="http://www.w3.org/1999/xlink" x="0px" y="0px"
	 viewBox="0 0 512 512" style="enable-background:new 0 0 512 512;" xml:space="preserve">
<style type="text/css">
	.st0{fill:#FFFFFF;}
</style>
<g>
	<path class="st0" d="M305.4,125.6l35.1,26c3.9,2.9,2,9.4-3,9.4l-11,0.1c0,0,0,0,0,0c-2.8,0-5.1-2.3-5.2-5.1
		c-0.1-8.3-6.8-15-15.1-14.9c-8.3,0.1-15,6.8-14.9,15.1c0.1,16,10.9,29.5,25.6,33.6v0.7c0,8.3,6.7,15,15,15s15-6.7,15-15v-0.8
		c5.8-1.6,11.2-4.7,15.6-9.2c6.6-6.7,10.2-15.5,10.1-25v-0.1c-0.1-11-5.4-21.5-14.2-28l-35.1-26c-4-2.9-1.9-9.3,3.1-9.3h11
		c2.8,0,5.2,2.3,5.2,5.2c0,8.3,6.7,15,15,15s15-6.7,15-15c0-16.1-10.9-29.7-25.6-33.8v-0.7c0-8.3-6.7-15-15-15s-15,6.7-15,15v0.7
		c-14.8,4.1-25.7,17.7-25.7,33.9C291.2,108.5,296.5,119,305.4,125.6L305.4,125.6z"/>
	<path class="st0" d="M331.9,253.3c69.9,0,126.7-56.8,126.7-126.7S401.7,0,331.9,0S205.2,56.8,205.2,126.7S262,253.3,331.9,253.3z
		 M331.9,30c53.3,0,96.7,43.4,96.7,96.7s-43.4,96.7-96.7,96.7c-53.3,0-96.7-43.4-96.7-96.7S278.6,30,331.9,30z"/>
	<path class="st0" d="M501.7,287.2c-16.2-20.9-45.5-24.8-66.6-10.2L378,315.2c-7.9-14.8-23.5-24.8-41.4-24.8h-40.7
		c-20.5-19.3-48-30.2-76.3-30.2c-21.2,0-41.9,6-59.7,17.4c-16.1,10.2-29.2,24.4-38.3,41l-7.6,4.7l-2-5.8c-2.7-7.8-11.2-12-19-9.3
		l-82.8,28.3c-7.8,2.7-12,11.2-9.3,19l50.1,146.5c2.7,7.8,11.2,12,19,9.3l82.8-28.3c7.4-2.5,12.2-10.6,9.2-19.5l131.3-4.1
		c35.8,0,70.1-11,99.2-31.8l99-70.4C514.1,340.9,518.8,309.2,501.7,287.2L501.7,287.2z M74.4,478L34,359.9l54.4-18.6
		c5.9,17.1,34.3,100.4,40.4,118.1L74.4,478z M474,332.7l-99,70.4c-24.1,17.1-52.5,26.2-82,26.2c-0.2,0-0.3,0-0.5,0l-140.8,4.4
		l-27.8-81.4l16.9-10.3c0,0,0,0,0,0c2.5-1.5,4.4-3.8,5.6-6.2c13.8-28.1,41.8-45.6,73.2-45.6c22.6,0,43.7,9.1,59.2,25.5
		c2.9,3,7,4.7,10.9,4.7h46.9c9.4,0,17,7.6,17,17c0,9.3-7.5,17-17,17H252c-8.3,0-15,6.7-15,15s6.7,15,15,15h84.6
		c12.6,0,24.4-4.9,33.2-13.8c6.2-6.2,10.4-13.8,12.4-22.1l69.6-46.6c0.1-0.1,0.2-0.1,0.2-0.2c8.2-5.7,19.6-4.2,25.9,3.9
		C484.6,314.1,482.8,326.4,474,332.7L474,332.7z"/>
</g>
</svg>
